<svg width="187" height="42" viewBox="0 0 187 42" fill="none" xmlns="http://www.w3.org/2000/svg">
<rect y="1" width="40" height="40" rx="8" fill="#1A1A1A"/>
<path fill-rule="evenodd" clip-rule="evenodd" d="M19.1579 7.32532C16.8875 7.69604 15.1618 9.52463 14.8506 11.8893L14.783 12.4029L12.4441 12.4183L10.1053 12.4337L9.68422 12.5515C8.06868 13.0035 6.80212 14.3314 6.40489 15.9895C6.24367 16.6625 6.24262 17.5771 6.40237 18.2201C6.527 18.7215 10.9747 31.8312 11.1256 32.1419C11.7085 33.3419 12.7686 34.2261 14.07 34.5981L14.4842 34.7165H20.2316H25.979L26.4 34.5968C26.8549 34.4674 27.4616 34.1836 27.8445 33.9212C28.5332 33.4492 29.2267 32.5534 29.5113 31.7682C29.653 31.3772 33.5601 18.4671 33.6501 18.0925C33.7029 17.873 33.7215 17.6104 33.7208 17.0966C33.7199 16.4831 33.7065 16.3473 33.6094 15.9724C33.4054 15.1845 33.0066 14.4386 32.4871 13.8737C31.7759 13.1003 30.8379 12.6025 29.8133 12.4549C29.6162 12.4265 28.6249 12.4081 27.29 12.4081H25.0914L25.023 11.8956C24.8254 10.4147 24.0668 9.0997 22.9218 8.25368C21.8524 7.46345 20.4422 7.11563 19.1579 7.32532ZM20.9593 8.80649C22.4587 9.26452 23.5118 10.5496 23.7059 12.1579L23.736 12.4081H19.9376H16.1391L16.1692 12.1355C16.3558 10.4454 17.5862 9.08104 19.2477 8.7221C19.6965 8.62514 20.4944 8.66448 20.9593 8.80649ZM30.0632 14.1025C30.594 14.2869 30.9203 14.4939 31.3095 14.8933C31.711 15.3052 31.9248 15.6582 32.0979 16.1952C32.1923 16.488 32.2057 16.6029 32.2057 17.1184L32.2058 17.7072L31.8801 18.7757C31.701 19.3634 31.5449 19.8729 31.5331 19.9079C31.5198 19.9474 31.4547 19.8648 31.3612 19.6898C30.9587 18.9365 30.3234 18.4682 29.4947 18.3141C29.2491 18.2684 28.4799 18.255 26.0316 18.2539L22.8842 18.2523L22.8835 18.0016C22.8798 16.7492 21.9923 15.6097 20.7357 15.2444C20.2906 15.115 19.705 15.0849 19.2767 15.1692C18.6086 15.3008 18.1035 15.5761 17.6182 16.0731C17.1176 16.5857 16.8238 17.2963 16.8218 17.9995L16.8211 18.2482L13.6526 18.2628C10.1257 18.2791 10.3032 18.2646 9.66317 18.5873C9.26468 18.7883 8.84915 19.2062 8.66435 19.592L8.53449 19.863L8.31643 19.2213C7.92266 18.0624 7.85879 17.8422 7.81167 17.4809C7.73698 16.9077 7.84616 16.2542 8.10548 15.7228C8.53075 14.8512 9.30569 14.2328 10.2105 14.0432C10.4326 13.9967 12.3035 13.9872 20.1263 13.9929L29.7684 14L30.0632 14.1025ZM20.3806 16.2256C21.2326 16.4522 21.8145 17.1187 21.8645 17.9251L21.8848 18.2523H19.8526H17.8205L17.8408 17.9251C17.914 16.743 19.1689 15.9033 20.3806 16.2256ZM29.6808 19.0703C30.0563 19.2184 30.2612 19.3579 30.4985 19.6269C30.8395 20.0132 31.0925 20.6663 31.0941 21.1641C31.095 21.4363 28.2045 30.9742 27.9723 31.4653C27.8338 31.7582 27.7234 31.9116 27.4358 32.2111C27.0365 32.627 26.6981 32.8475 26.1755 33.0323L25.8526 33.1464H20.2316H14.6105L14.2737 33.0276C13.5049 32.7564 12.8184 32.1498 12.4646 31.4291C12.4249 31.348 11.6361 29.0442 10.712 26.3095C9.04153 21.3666 9.03159 21.3352 9.03159 20.9895C9.03159 20.6124 9.1147 20.212 9.24999 19.9373C9.37887 19.6756 9.71833 19.3279 9.96932 19.2007C10.4769 18.9432 9.92864 18.956 20.1053 18.9643L29.4316 18.972L29.6808 19.0703ZM18.9786 22.6686C18.4867 23.1786 18.0842 23.6252 18.0842 23.6612C18.0842 23.7328 19.8482 25.5794 19.9165 25.5794C19.9397 25.5794 20.3751 25.1477 20.8842 24.6199L21.8098 23.6604L20.8842 22.7009C20.3751 22.1732 19.9393 21.7414 19.9158 21.7414C19.8922 21.7414 19.4705 22.1587 18.9786 22.6686ZM16.5365 25.1982C16.0446 25.7082 15.6421 26.145 15.6421 26.169C15.6421 26.193 16.059 26.644 16.5684 27.1714L17.4947 28.1301L18.4211 27.1714C18.9305 26.644 19.3474 26.1926 19.3474 26.1682C19.3474 26.097 17.5636 24.271 17.494 24.271C17.4593 24.271 17.0284 24.6882 16.5365 25.1982ZM21.3786 25.1982C20.8867 25.7082 20.4842 26.145 20.4842 26.169C20.4842 26.193 20.9011 26.644 21.4105 27.1714L22.3369 28.1301L23.2632 27.1714C23.7726 26.644 24.1895 26.1926 24.1895 26.1682C24.1895 26.097 22.4057 24.271 22.3361 24.271C22.3014 24.271 21.8705 24.6882 21.3786 25.1982ZM18.9786 27.6842C18.4867 28.1941 18.0842 28.6408 18.0842 28.6768C18.0842 28.7483 19.8482 30.595 19.9165 30.595C19.9397 30.595 20.3751 30.1632 20.8842 29.6355L21.8098 28.676L20.8842 27.7165C20.3751 27.1888 19.9393 26.757 19.9158 26.757C19.8922 26.757 19.4705 27.1742 18.9786 27.6842Z" fill="white"/>
<path d="M52.64 11.64H59.38V14.16H52.64V11.64ZM52.88 17.4H60.5V20H49.66V6H60.24V8.6H52.88V17.4ZM62.0203 20V18.12L68.3803 10.6L68.9203 11.64H62.1603V9.24H71.4403V11.12L65.0803 18.64L64.5203 17.6H71.6203V20H62.0203ZM80.5397 20.24C79.4597 20.24 78.453 20.0667 77.5197 19.72C76.5997 19.36 75.7997 18.8533 75.1197 18.2C74.4397 17.5467 73.9064 16.78 73.5197 15.9C73.1464 15.02 72.9597 14.0533 72.9597 13C72.9597 11.9467 73.1464 10.98 73.5197 10.1C73.9064 9.22 74.4397 8.45333 75.1197 7.8C75.813 7.14667 76.6197 6.64667 77.5397 6.3C78.4597 5.94 79.4664 5.76 80.5597 5.76C81.773 5.76 82.8664 5.97333 83.8397 6.4C84.8264 6.81333 85.653 7.42667 86.3197 8.24L84.2397 10.16C83.7597 9.61333 83.2264 9.20667 82.6397 8.94C82.053 8.66 81.413 8.52 80.7197 8.52C80.0664 8.52 79.4664 8.62667 78.9197 8.84C78.373 9.05333 77.8997 9.36 77.4997 9.76C77.0997 10.16 76.7864 10.6333 76.5597 11.18C76.3464 11.7267 76.2397 12.3333 76.2397 13C76.2397 13.6667 76.3464 14.2733 76.5597 14.82C76.7864 15.3667 77.0997 15.84 77.4997 16.24C77.8997 16.64 78.373 16.9467 78.9197 17.16C79.4664 17.3733 80.0664 17.48 80.7197 17.48C81.413 17.48 82.053 17.3467 82.6397 17.08C83.2264 16.8 83.7597 16.38 84.2397 15.82L86.3197 17.74C85.653 18.5533 84.8264 19.1733 83.8397 19.6C82.8664 20.0267 81.7664 20.24 80.5397 20.24ZM93.0366 20.16C91.8899 20.16 90.8699 19.92 89.9766 19.44C89.0966 18.96 88.3966 18.3067 87.8766 17.48C87.3699 16.64 87.1166 15.6867 87.1166 14.62C87.1166 13.54 87.3699 12.5867 87.8766 11.76C88.3966 10.92 89.0966 10.2667 89.9766 9.8C90.8699 9.32 91.8899 9.08 93.0366 9.08C94.1699 9.08 95.1832 9.32 96.0766 9.8C96.9699 10.2667 97.6699 10.9133 98.1766 11.74C98.6832 12.5667 98.9366 13.5267 98.9366 14.62C98.9366 15.6867 98.6832 16.64 98.1766 17.48C97.6699 18.3067 96.9699 18.96 96.0766 19.44C95.1832 19.92 94.1699 20.16 93.0366 20.16ZM93.0366 17.6C93.5566 17.6 94.0232 17.48 94.4366 17.24C94.8499 17 95.1766 16.66 95.4166 16.22C95.6566 15.7667 95.7766 15.2333 95.7766 14.62C95.7766 13.9933 95.6566 13.46 95.4166 13.02C95.1766 12.58 94.8499 12.24 94.4366 12C94.0232 11.76 93.5566 11.64 93.0366 11.64C92.5166 11.64 92.0499 11.76 91.6366 12C91.2232 12.24 90.8899 12.58 90.6366 13.02C90.3966 13.46 90.2766 13.9933 90.2766 14.62C90.2766 15.2333 90.3966 15.7667 90.6366 16.22C90.8899 16.66 91.2232 17 91.6366 17.24C92.0499 17.48 92.5166 17.6 93.0366 17.6ZM114.802 9.08C115.655 9.08 116.409 9.25333 117.062 9.6C117.729 9.93333 118.249 10.4533 118.622 11.16C119.009 11.8533 119.202 12.7467 119.202 13.84V20H116.082V14.32C116.082 13.4533 115.902 12.8133 115.542 12.4C115.182 11.9867 114.675 11.78 114.022 11.78C113.569 11.78 113.162 11.8867 112.802 12.1C112.442 12.3 112.162 12.6067 111.962 13.02C111.762 13.4333 111.662 13.96 111.662 14.6V20H108.542V14.32C108.542 13.4533 108.362 12.8133 108.002 12.4C107.655 11.9867 107.155 11.78 106.502 11.78C106.049 11.78 105.642 11.8867 105.282 12.1C104.922 12.3 104.642 12.6067 104.442 13.02C104.242 13.4333 104.142 13.96 104.142 14.6V20H101.022V9.24H104.002V12.18L103.442 11.32C103.815 10.5867 104.342 10.0333 105.022 9.66C105.715 9.27333 106.502 9.08 107.382 9.08C108.369 9.08 109.229 9.33333 109.962 9.84C110.709 10.3333 111.202 11.0933 111.442 12.12L110.342 11.82C110.702 10.98 111.275 10.3133 112.062 9.82C112.862 9.32667 113.775 9.08 114.802 9.08ZM135.779 9.08C136.632 9.08 137.385 9.25333 138.039 9.6C138.705 9.93333 139.225 10.4533 139.599 11.16C139.985 11.8533 140.179 12.7467 140.179 13.84V20H137.059V14.32C137.059 13.4533 136.879 12.8133 136.519 12.4C136.159 11.9867 135.652 11.78 134.999 11.78C134.545 11.78 134.139 11.8867 133.779 12.1C133.419 12.3 133.139 12.6067 132.939 13.02C132.739 13.4333 132.639 13.96 132.639 14.6V20H129.519V14.32C129.519 13.4533 129.339 12.8133 128.979 12.4C128.632 11.9867 128.132 11.78 127.479 11.78C127.025 11.78 126.619 11.8867 126.259 12.1C125.899 12.3 125.619 12.6067 125.419 13.02C125.219 13.4333 125.119 13.96 125.119 14.6V20H121.999V9.24H124.979V12.18L124.419 11.32C124.792 10.5867 125.319 10.0333 125.999 9.66C126.692 9.27333 127.479 9.08 128.359 9.08C129.345 9.08 130.205 9.33333 130.939 9.84C131.685 10.3333 132.179 11.0933 132.419 12.12L131.319 11.82C131.679 10.98 132.252 10.3133 133.039 9.82C133.839 9.32667 134.752 9.08 135.779 9.08ZM148.393 20.16C147.167 20.16 146.087 19.92 145.153 19.44C144.233 18.96 143.52 18.3067 143.013 17.48C142.507 16.64 142.253 15.6867 142.253 14.62C142.253 13.54 142.5 12.5867 142.993 11.76C143.5 10.92 144.187 10.2667 145.053 9.8C145.92 9.32 146.9 9.08 147.993 9.08C149.047 9.08 149.993 9.30667 150.833 9.76C151.687 10.2 152.36 10.84 152.853 11.68C153.347 12.5067 153.593 13.5 153.593 14.66C153.593 14.78 153.587 14.92 153.573 15.08C153.56 15.2267 153.547 15.3667 153.533 15.5H144.793V13.68H151.893L150.693 14.22C150.693 13.66 150.58 13.1733 150.353 12.76C150.127 12.3467 149.813 12.0267 149.413 11.8C149.013 11.56 148.547 11.44 148.013 11.44C147.48 11.44 147.007 11.56 146.593 11.8C146.193 12.0267 145.88 12.3533 145.653 12.78C145.427 13.1933 145.313 13.6867 145.313 14.26V14.74C145.313 15.3267 145.44 15.8467 145.693 16.3C145.96 16.74 146.327 17.08 146.793 17.32C147.273 17.5467 147.833 17.66 148.473 17.66C149.047 17.66 149.547 17.5733 149.973 17.4C150.413 17.2267 150.813 16.9667 151.173 16.62L152.833 18.42C152.34 18.98 151.72 19.4133 150.973 19.72C150.227 20.0133 149.367 20.16 148.393 20.16ZM155.67 20V9.24H158.65V12.28L158.23 11.4C158.55 10.64 159.064 10.0667 159.77 9.68C160.477 9.28 161.337 9.08 162.35 9.08V11.96C162.217 11.9467 162.097 11.94 161.99 11.94C161.884 11.9267 161.77 11.92 161.65 11.92C160.797 11.92 160.104 12.1667 159.57 12.66C159.05 13.14 158.79 13.8933 158.79 14.92V20H155.67ZM169.328 20.16C168.168 20.16 167.134 19.9267 166.228 19.46C165.321 18.98 164.608 18.32 164.088 17.48C163.581 16.64 163.328 15.6867 163.328 14.62C163.328 13.54 163.581 12.5867 164.088 11.76C164.608 10.92 165.321 10.2667 166.228 9.8C167.134 9.32 168.168 9.08 169.328 9.08C170.461 9.08 171.448 9.32 172.288 9.8C173.128 10.2667 173.748 10.94 174.148 11.82L171.728 13.12C171.448 12.6133 171.094 12.24 170.668 12C170.254 11.76 169.801 11.64 169.308 11.64C168.774 11.64 168.294 11.76 167.868 12C167.441 12.24 167.101 12.58 166.848 13.02C166.608 13.46 166.488 13.9933 166.488 14.62C166.488 15.2467 166.608 15.78 166.848 16.22C167.101 16.66 167.441 17 167.868 17.24C168.294 17.48 168.774 17.6 169.308 17.6C169.801 17.6 170.254 17.4867 170.668 17.26C171.094 17.02 171.448 16.64 171.728 16.12L174.148 17.44C173.748 18.3067 173.128 18.98 172.288 19.46C171.448 19.9267 170.461 20.16 169.328 20.16ZM181.147 20.16C179.921 20.16 178.841 19.92 177.907 19.44C176.987 18.96 176.274 18.3067 175.767 17.48C175.261 16.64 175.007 15.6867 175.007 14.62C175.007 13.54 175.254 12.5867 175.747 11.76C176.254 10.92 176.941 10.2667 177.807 9.8C178.674 9.32 179.654 9.08 180.747 9.08C181.801 9.08 182.747 9.30667 183.587 9.76C184.441 10.2 185.114 10.84 185.607 11.68C186.101 12.5067 186.347 13.5 186.347 14.66C186.347 14.78 186.341 14.92 186.327 15.08C186.314 15.2267 186.301 15.3667 186.287 15.5H177.547V13.68H184.647L183.447 14.22C183.447 13.66 183.334 13.1733 183.107 12.76C182.881 12.3467 182.567 12.0267 182.167 11.8C181.767 11.56 181.301 11.44 180.767 11.44C180.234 11.44 179.761 11.56 179.347 11.8C178.947 12.0267 178.634 12.3533 178.407 12.78C178.181 13.1933 178.067 13.6867 178.067 14.26V14.74C178.067 15.3267 178.194 15.8467 178.447 16.3C178.714 16.74 179.081 17.08 179.547 17.32C180.027 17.5467 180.587 17.66 181.227 17.66C181.801 17.66 182.301 17.5733 182.727 17.4C183.167 17.2267 183.567 16.9667 183.927 16.62L185.587 18.42C185.094 18.98 184.474 19.4133 183.727 19.72C182.981 20.0133 182.121 20.16 181.147 20.16Z" fill="#1A1A1A"/>
<path d="M49.8 35.13H53.5V35.76H49.8V35.13ZM49.88 38.36H54.09V39H49.14V32H53.94V32.64H49.88V38.36ZM55.0941 36.6V35.98H57.7141V36.6H55.0941ZM61.5802 39.05C61.0602 39.05 60.5935 38.9367 60.1802 38.71C59.7735 38.4767 59.4535 38.16 59.2202 37.76C58.9868 37.3533 58.8702 36.89 58.8702 36.37C58.8702 35.8433 58.9868 35.38 59.2202 34.98C59.4535 34.58 59.7735 34.2667 60.1802 34.04C60.5935 33.8133 61.0602 33.7 61.5802 33.7C62.0268 33.7 62.4302 33.7867 62.7902 33.96C63.1502 34.1333 63.4335 34.3933 63.6402 34.74L63.1102 35.1C62.9302 34.8333 62.7068 34.6367 62.4402 34.51C62.1735 34.3833 61.8835 34.32 61.5702 34.32C61.1968 34.32 60.8602 34.4067 60.5602 34.58C60.2602 34.7467 60.0235 34.9833 59.8502 35.29C59.6768 35.5967 59.5902 35.9567 59.5902 36.37C59.5902 36.7833 59.6768 37.1433 59.8502 37.45C60.0235 37.7567 60.2602 37.9967 60.5602 38.17C60.8602 38.3367 61.1968 38.42 61.5702 38.42C61.8835 38.42 62.1735 38.3567 62.4402 38.23C62.7068 38.1033 62.9302 37.91 63.1102 37.65L63.6402 38.01C63.4335 38.35 63.1502 38.61 62.7902 38.79C62.4302 38.9633 62.0268 39.05 61.5802 39.05ZM67.087 39.05C66.5804 39.05 66.1237 38.9367 65.717 38.71C65.317 38.4767 65.0004 38.16 64.767 37.76C64.5337 37.3533 64.417 36.89 64.417 36.37C64.417 35.8433 64.5337 35.38 64.767 34.98C65.0004 34.58 65.317 34.2667 65.717 34.04C66.117 33.8133 66.5737 33.7 67.087 33.7C67.607 33.7 68.067 33.8133 68.467 34.04C68.8737 34.2667 69.1904 34.58 69.417 34.98C69.6504 35.38 69.767 35.8433 69.767 36.37C69.767 36.89 69.6504 37.3533 69.417 37.76C69.1904 38.16 68.8737 38.4767 68.467 38.71C68.0604 38.9367 67.6004 39.05 67.087 39.05ZM67.087 38.42C67.467 38.42 67.8037 38.3367 68.097 38.17C68.3904 37.9967 68.6204 37.7567 68.787 37.45C68.9604 37.1367 69.047 36.7767 69.047 36.37C69.047 35.9567 68.9604 35.5967 68.787 35.29C68.6204 34.9833 68.3904 34.7467 68.097 34.58C67.8037 34.4067 67.4704 34.32 67.097 34.32C66.7237 34.32 66.3904 34.4067 66.097 34.58C65.8037 34.7467 65.5704 34.9833 65.397 35.29C65.2237 35.5967 65.137 35.9567 65.137 36.37C65.137 36.7767 65.2237 37.1367 65.397 37.45C65.5704 37.7567 65.8037 37.9967 66.097 38.17C66.3904 38.3367 66.7204 38.42 67.087 38.42ZM77.7766 33.7C78.2032 33.7 78.5732 33.7833 78.8866 33.95C79.2066 34.11 79.4532 34.3567 79.6266 34.69C79.8066 35.0233 79.8966 35.4433 79.8966 35.95V39H79.1866V36.02C79.1866 35.4667 79.0532 35.05 78.7866 34.77C78.5266 34.4833 78.1566 34.34 77.6766 34.34C77.3166 34.34 77.0032 34.4167 76.7366 34.57C76.4766 34.7167 76.2732 34.9333 76.1266 35.22C75.9866 35.5 75.9166 35.84 75.9166 36.24V39H75.2066V36.02C75.2066 35.4667 75.0732 35.05 74.8066 34.77C74.5399 34.4833 74.1666 34.34 73.6866 34.34C73.3332 34.34 73.0232 34.4167 72.7566 34.57C72.4899 34.7167 72.2832 34.9333 72.1366 35.22C71.9966 35.5 71.9266 35.84 71.9266 36.24V39H71.2166V33.75H71.8966V35.17L71.7866 34.92C71.9466 34.54 72.2032 34.2433 72.5566 34.03C72.9166 33.81 73.3399 33.7 73.8266 33.7C74.3399 33.7 74.7766 33.83 75.1366 34.09C75.4966 34.3433 75.7299 34.7267 75.8366 35.24L75.5566 35.13C75.7099 34.7033 75.9799 34.36 76.3666 34.1C76.7599 33.8333 77.2299 33.7 77.7766 33.7ZM88.382 33.7C88.8087 33.7 89.1787 33.7833 89.492 33.95C89.812 34.11 90.0587 34.3567 90.232 34.69C90.412 35.0233 90.502 35.4433 90.502 35.95V39H89.792V36.02C89.792 35.4667 89.6587 35.05 89.392 34.77C89.132 34.4833 88.762 34.34 88.282 34.34C87.922 34.34 87.6087 34.4167 87.342 34.57C87.082 34.7167 86.8787 34.9333 86.732 35.22C86.592 35.5 86.522 35.84 86.522 36.24V39H85.812V36.02C85.812 35.4667 85.6787 35.05 85.412 34.77C85.1454 34.4833 84.772 34.34 84.292 34.34C83.9387 34.34 83.6287 34.4167 83.362 34.57C83.0954 34.7167 82.8887 34.9333 82.742 35.22C82.602 35.5 82.532 35.84 82.532 36.24V39H81.822V33.75H82.502V35.17L82.392 34.92C82.552 34.54 82.8087 34.2433 83.162 34.03C83.522 33.81 83.9454 33.7 84.432 33.7C84.9454 33.7 85.382 33.83 85.742 34.09C86.102 34.3433 86.3354 34.7267 86.442 35.24L86.162 35.13C86.3154 34.7033 86.5854 34.36 86.972 34.1C87.3654 33.8333 87.8354 33.7 88.382 33.7ZM94.6575 39.05C94.1108 39.05 93.6308 38.9367 93.2175 38.71C92.8042 38.4767 92.4808 38.16 92.2475 37.76C92.0142 37.3533 91.8975 36.89 91.8975 36.37C91.8975 35.85 92.0075 35.39 92.2275 34.99C92.4542 34.59 92.7608 34.2767 93.1475 34.05C93.5408 33.8167 93.9808 33.7 94.4675 33.7C94.9608 33.7 95.3975 33.8133 95.7775 34.04C96.1642 34.26 96.4675 34.5733 96.6875 34.98C96.9075 35.38 97.0175 35.8433 97.0175 36.37C97.0175 36.4033 97.0142 36.44 97.0075 36.48C97.0075 36.5133 97.0075 36.55 97.0075 36.59H92.4375V36.06H96.6275L96.3475 36.27C96.3475 35.89 96.2642 35.5533 96.0975 35.26C95.9375 34.96 95.7175 34.7267 95.4375 34.56C95.1575 34.3933 94.8342 34.31 94.4675 34.31C94.1075 34.31 93.7842 34.3933 93.4975 34.56C93.2108 34.7267 92.9875 34.96 92.8275 35.26C92.6675 35.56 92.5875 35.9033 92.5875 36.29V36.4C92.5875 36.8 92.6742 37.1533 92.8475 37.46C93.0275 37.76 93.2742 37.9967 93.5875 38.17C93.9075 38.3367 94.2708 38.42 94.6775 38.42C94.9975 38.42 95.2942 38.3633 95.5675 38.25C95.8475 38.1367 96.0875 37.9633 96.2875 37.73L96.6875 38.19C96.4542 38.47 96.1608 38.6833 95.8075 38.83C95.4608 38.9767 95.0775 39.05 94.6575 39.05ZM98.4627 39V33.75H99.1427V35.18L99.0727 34.93C99.2193 34.53 99.466 34.2267 99.8127 34.02C100.159 33.8067 100.589 33.7 101.103 33.7V34.39C101.076 34.39 101.049 34.39 101.023 34.39C100.996 34.3833 100.969 34.38 100.943 34.38C100.389 34.38 99.956 34.55 99.6427 34.89C99.3293 35.2233 99.1727 35.7 99.1727 36.32V39H98.4627ZM104.529 39.05C104.009 39.05 103.543 38.9367 103.129 38.71C102.723 38.4767 102.403 38.16 102.169 37.76C101.936 37.3533 101.819 36.89 101.819 36.37C101.819 35.8433 101.936 35.38 102.169 34.98C102.403 34.58 102.723 34.2667 103.129 34.04C103.543 33.8133 104.009 33.7 104.529 33.7C104.976 33.7 105.379 33.7867 105.739 33.96C106.099 34.1333 106.383 34.3933 106.589 34.74L106.059 35.1C105.879 34.8333 105.656 34.6367 105.389 34.51C105.123 34.3833 104.833 34.32 104.519 34.32C104.146 34.32 103.809 34.4067 103.509 34.58C103.209 34.7467 102.973 34.9833 102.799 35.29C102.626 35.5967 102.539 35.9567 102.539 36.37C102.539 36.7833 102.626 37.1433 102.799 37.45C102.973 37.7567 103.209 37.9967 103.509 38.17C103.809 38.3367 104.146 38.42 104.519 38.42C104.833 38.42 105.123 38.3567 105.389 38.23C105.656 38.1033 105.879 37.91 106.059 37.65L106.589 38.01C106.383 38.35 106.099 38.61 105.739 38.79C105.379 38.9633 104.976 39.05 104.529 39.05ZM110.126 39.05C109.58 39.05 109.1 38.9367 108.686 38.71C108.273 38.4767 107.95 38.16 107.716 37.76C107.483 37.3533 107.366 36.89 107.366 36.37C107.366 35.85 107.476 35.39 107.696 34.99C107.923 34.59 108.23 34.2767 108.616 34.05C109.01 33.8167 109.45 33.7 109.936 33.7C110.43 33.7 110.866 33.8133 111.246 34.04C111.633 34.26 111.936 34.5733 112.156 34.98C112.376 35.38 112.486 35.8433 112.486 36.37C112.486 36.4033 112.483 36.44 112.476 36.48C112.476 36.5133 112.476 36.55 112.476 36.59H107.906V36.06H112.096L111.816 36.27C111.816 35.89 111.733 35.5533 111.566 35.26C111.406 34.96 111.186 34.7267 110.906 34.56C110.626 34.3933 110.303 34.31 109.936 34.31C109.576 34.31 109.253 34.3933 108.966 34.56C108.68 34.7267 108.456 34.96 108.296 35.26C108.136 35.56 108.056 35.9033 108.056 36.29V36.4C108.056 36.8 108.143 37.1533 108.316 37.46C108.496 37.76 108.743 37.9967 109.056 38.17C109.376 38.3367 109.74 38.42 110.146 38.42C110.466 38.42 110.763 38.3633 111.036 38.25C111.316 38.1367 111.556 37.9633 111.756 37.73L112.156 38.19C111.923 38.47 111.63 38.6833 111.276 38.83C110.93 38.9767 110.546 39.05 110.126 39.05ZM119.519 39.06C118.625 39.06 117.922 38.8033 117.409 38.29C116.895 37.7767 116.639 37.0167 116.639 36.01V32H117.379V35.98C117.379 36.8067 117.565 37.4167 117.939 37.81C118.312 38.2033 118.839 38.4 119.519 38.4C120.205 38.4 120.735 38.2033 121.109 37.81C121.482 37.4167 121.669 36.8067 121.669 35.98V32H122.389V36.01C122.389 37.0167 122.132 37.7767 121.619 38.29C121.112 38.8033 120.412 39.06 119.519 39.06ZM124.619 39V32H125.359V39H124.619ZM128.276 37.26L128.246 36.36L132.486 32H133.336L130.246 35.24L129.826 35.69L128.276 37.26ZM127.636 39V32H128.376V39H127.636ZM132.666 39L129.646 35.52L130.146 34.98L133.546 39H132.666ZM134.595 39V33.75H135.305V39H134.595ZM134.955 32.59C134.809 32.59 134.685 32.54 134.585 32.44C134.485 32.34 134.435 32.22 134.435 32.08C134.435 31.94 134.485 31.8233 134.585 31.73C134.685 31.63 134.809 31.58 134.955 31.58C135.102 31.58 135.225 31.6267 135.325 31.72C135.425 31.8133 135.475 31.93 135.475 32.07C135.475 32.2167 135.425 32.34 135.325 32.44C135.232 32.54 135.109 32.59 134.955 32.59ZM138.941 39.05C138.448 39.05 138.068 38.9167 137.801 38.65C137.534 38.3833 137.401 38.0067 137.401 37.52V32.59H138.111V37.48C138.111 37.7867 138.188 38.0233 138.341 38.19C138.501 38.3567 138.728 38.44 139.021 38.44C139.334 38.44 139.594 38.35 139.801 38.17L140.051 38.68C139.911 38.8067 139.741 38.9 139.541 38.96C139.348 39.02 139.148 39.05 138.941 39.05ZM136.461 34.34V33.75H139.711V34.34H136.461Z" fill="#1A1A1A"/>
</svg>
